<svg xmlns="http://www.w3.org/2000/svg"  viewBox="0 0 50 50" width="50px" height="50px" baseProfile="basic"><polygon fill="#16d6fa" points="38.338,39.374 24.327,13 19.798,13 34.779,41.2"/><polygon fill="#16d6fa" points="12.714,31.17 6.49,15.61 29.73,23.978 28.376,27.741 13.51,22.39 16.428,29.684"/><polygon fill="#16d6fa" points="41.098,50 17.989,50 0.525,26.299 33.123,31.238 32.523,35.193 9.475,31.701 20.011,46 38.902,46 44.62,37.015 28.326,12.095 31.674,9.905 49.38,36.985"/><path fill="#16d6fa" d="M46.702,13H19.592L30.755,0.243L46.702,13z M28.408,9h6.891l-4.053-3.243L28.408,9z"/><polygon fill="#00a4ff" points="17.735,32.953 16.012,28.645 11.426,27.95 13.149,32.258"/><polygon fill="#00a4ff" points="33.053,29.425 30.26,24.168 24.66,22.152 27.452,27.408"/><polygon fill="#00a4ff" points="31.506,35.039 36.432,35.785 34.094,31.385 29.168,30.639"/></svg>